<svg width="390" height="844" viewBox="0 0 390 844" fill="none" xmlns="http://www.w3.org/2000/svg">
<path d="M125.758 447.477H132.023L131.477 448.727H125.211L125.758 447.477ZM135.914 451.703C135.914 451.875 135.982 452.052 136.117 452.234C136.367 452.568 136.766 452.734 137.312 452.734C137.646 452.734 137.94 452.656 138.195 452.5L138.664 453.68C138.258 453.893 137.807 454 137.312 454C136.531 454 135.839 453.714 135.234 453.141C134.828 452.724 134.625 452.245 134.625 451.703C134.625 451.682 134.625 451.661 134.625 451.641C134.625 450.667 135.122 449.977 136.117 449.57L139.297 448.266C139.297 447.771 139.133 447.357 138.805 447.023C138.477 446.685 138.062 446.516 137.562 446.516C137.125 446.516 136.74 446.68 136.406 447.008C136.083 447.326 135.917 447.727 135.906 448.211V448.32L134.656 448.875V448.188C134.656 447.458 134.969 446.76 135.594 446.094C136.125 445.531 136.797 445.25 137.609 445.25C138.422 445.25 139.115 445.536 139.688 446.109C140.26 446.682 140.547 447.375 140.547 448.188V453.453L139.297 454V449.633L136.727 450.68C136.185 450.935 135.914 451.276 135.914 451.703ZM152.625 454V448.188C152.625 447.375 152.911 446.682 153.484 446.109C154.057 445.536 154.75 445.25 155.562 445.25C156.391 445.25 157.086 445.536 157.648 446.109C158.227 446.703 158.516 447.396 158.516 448.188V448.219L157.266 448.766V448.211C157.255 447.727 157.089 447.326 156.766 447.008C156.432 446.68 156.039 446.516 155.586 446.516C155.112 446.516 154.708 446.68 154.375 447.008C154.042 447.336 153.875 447.729 153.875 448.188C153.875 448.198 153.875 448.206 153.875 448.211V453.453L152.625 454ZM164.594 452.734C165.031 452.734 165.417 452.57 165.75 452.242C166.073 451.924 166.24 451.523 166.25 451.039V450.93L167.5 450.375V451.062C167.5 451.792 167.188 452.49 166.562 453.156C166.031 453.719 165.359 454 164.547 454C163.734 454 163.042 453.714 162.469 453.141C161.896 452.568 161.609 451.875 161.609 451.062V448.188C161.609 447.375 161.896 446.682 162.469 446.109C163.042 445.536 163.734 445.25 164.547 445.25C165.328 445.25 166.023 445.536 166.633 446.109C167.211 446.651 167.5 447.344 167.5 448.188V448.922L162.859 450.984C162.859 451.479 163.023 451.896 163.352 452.234C163.68 452.568 164.094 452.734 164.594 452.734ZM164.5 446.516C164.062 446.516 163.68 446.68 163.352 447.008C163.023 447.336 162.859 447.729 162.859 448.188C162.859 448.198 162.859 448.206 162.859 448.211V449.617L166.242 448.109C166.216 447.672 166.052 447.305 165.75 447.008C165.417 446.68 165 446.516 164.5 446.516ZM171.844 451.039C171.844 451.518 172.018 451.919 172.367 452.242C172.721 452.57 173.125 452.734 173.578 452.734C174.016 452.734 174.401 452.57 174.734 452.242C175.057 451.924 175.224 451.523 175.234 451.039V450.93L176.484 450.375V451.062C176.484 451.792 176.172 452.49 175.547 453.156C175.016 453.719 174.344 454 173.531 454C172.719 454 172.026 453.714 171.453 453.141C170.88 452.568 170.594 451.875 170.594 451.062V448.188C170.594 447.375 170.88 446.682 171.453 446.109C172.026 445.536 172.719 445.25 173.531 445.25C174.354 445.25 175.049 445.536 175.617 446.109C176.195 446.682 176.484 447.375 176.484 448.188V448.266L175.234 448.828V448.211C175.224 447.727 175.057 447.326 174.734 447.008C174.401 446.68 174.008 446.516 173.555 446.516C173.086 446.516 172.682 446.68 172.344 447.008C172.01 447.336 171.844 447.729 171.844 448.188C171.844 448.198 171.844 448.206 171.844 448.211V451.039ZM180.828 451.039C180.828 451.518 181.003 451.919 181.352 452.242C181.706 452.57 182.109 452.734 182.562 452.734C183 452.734 183.385 452.57 183.719 452.242C184.042 451.924 184.208 451.523 184.219 451.039V448.211C184.208 447.727 184.042 447.326 183.719 447.008C183.385 446.68 182.969 446.516 182.469 446.516C182.031 446.516 181.648 446.68 181.32 447.008C180.997 447.331 180.833 447.716 180.828 448.164V448.211V451.039ZM179.578 448.188C179.578 447.375 179.865 446.682 180.438 446.109C181.01 445.536 181.703 445.25 182.516 445.25C183.328 445.25 184.023 445.536 184.602 446.109C185.18 446.682 185.469 447.375 185.469 448.188V451.062C185.469 451.875 185.18 452.568 184.602 453.141C184.023 453.714 183.328 454 182.516 454C181.703 454 181.01 453.714 180.438 453.141C179.865 452.568 179.578 451.875 179.578 451.062V448.188ZM188.562 454V448.188C188.562 447.375 188.849 446.682 189.422 446.109C189.995 445.536 190.688 445.25 191.5 445.25C192.328 445.25 193.023 445.536 193.586 446.109C194.164 446.703 194.453 447.396 194.453 448.188V448.219L193.203 448.766V448.211C193.193 447.727 193.026 447.326 192.703 447.008C192.37 446.68 191.977 446.516 191.523 446.516C191.049 446.516 190.646 446.68 190.312 447.008C189.979 447.336 189.812 447.729 189.812 448.188C189.812 448.198 189.812 448.206 189.812 448.211V453.453L188.562 454ZM198.797 451.039C198.797 451.518 198.971 451.919 199.32 452.242C199.674 452.57 200.078 452.734 200.531 452.734C200.969 452.734 201.354 452.57 201.688 452.242C202.01 451.924 202.177 451.523 202.188 451.039V448.211C202.177 447.727 202.01 447.326 201.688 447.008C201.354 446.68 200.938 446.516 200.438 446.516C200 446.516 199.617 446.68 199.289 447.008C198.966 447.331 198.802 447.716 198.797 448.164V448.211V451.039ZM203.438 442.195V451.062C203.438 451.875 203.148 452.568 202.57 453.141C201.992 453.714 201.297 454 200.484 454C199.672 454 198.979 453.714 198.406 453.141C197.833 452.568 197.547 451.875 197.547 451.062V448.188C197.547 447.375 197.833 446.682 198.406 446.109C198.979 445.536 199.672 445.25 200.484 445.25C201.125 445.25 201.693 445.427 202.188 445.781V442.742L203.438 442.195ZM216.766 451.039C216.766 451.518 216.94 451.919 217.289 452.242C217.643 452.57 218.047 452.734 218.5 452.734C218.938 452.734 219.323 452.57 219.656 452.242C219.979 451.924 220.146 451.523 220.156 451.039V448.211C220.146 447.727 219.979 447.326 219.656 447.008C219.323 446.68 218.906 446.516 218.406 446.516C217.969 446.516 217.586 446.68 217.258 447.008C216.935 447.331 216.771 447.716 216.766 448.164V448.211V451.039ZM215.516 448.188C215.516 447.375 215.802 446.682 216.375 446.109C216.948 445.536 217.641 445.25 218.453 445.25C219.266 445.25 219.961 445.536 220.539 446.109C221.117 446.682 221.406 447.375 221.406 448.188V451.062C221.406 451.875 221.117 452.568 220.539 453.141C219.961 453.714 219.266 454 218.453 454C217.641 454 216.948 453.714 216.375 453.141C215.802 452.568 215.516 451.875 215.516 451.062V448.188ZM224.5 454V448.719H223.547L224.094 447.469H224.5V445.133C224.5 444.32 224.786 443.628 225.359 443.055C225.932 442.482 226.625 442.195 227.438 442.195C228.266 442.195 228.961 442.482 229.523 443.055C230.102 443.648 230.391 444.341 230.391 445.133V445.164L229.141 445.711V445.156C229.13 444.672 228.964 444.271 228.641 443.953C228.302 443.62 227.901 443.453 227.438 443.453C226.974 443.453 226.576 443.62 226.242 443.953C225.914 444.281 225.75 444.674 225.75 445.133C225.75 445.143 225.75 445.151 225.75 445.156V447.469H229.438L228.891 448.719H225.75V453.453L224.5 454ZM241.891 454V445.672C241.891 444.714 242.234 443.896 242.922 443.219C243.609 442.536 244.44 442.195 245.414 442.195C246.388 442.195 247.219 442.536 247.906 443.219C248.594 443.896 248.938 444.714 248.938 445.672V453.453L247.688 454V448.727H243.141V453.453L241.891 454ZM243.141 447.477H247.688V445.648C247.682 445.023 247.458 444.492 247.016 444.055C246.568 443.612 246.034 443.391 245.414 443.391C244.789 443.391 244.253 443.612 243.805 444.055C243.362 444.492 243.141 445.016 243.141 445.625V445.648V447.477ZM251.539 442.352H257.805L257.258 443.602H255.023V452.594H257.805L257.258 453.844H250.992L251.539 452.594H253.773V443.602H250.992L251.539 442.352ZM260.523 447.477H266.789L266.242 448.727H259.977L260.523 447.477Z" fill="white"/>
<path d="M70.3086 624.779C70.3086 625.139 70.4395 625.439 70.7012 625.682C70.9668 625.928 71.2695 626.051 71.6094 626.051C71.9375 626.051 72.2266 625.928 72.4766 625.682C72.7188 625.443 72.8438 625.143 72.8516 624.779V624.697L73.7891 624.281V624.797C73.7891 625.344 73.5547 625.867 73.0859 626.367C72.6875 626.789 72.1836 627 71.5742 627C70.9648 627 70.4453 626.785 70.0156 626.355C69.5859 625.926 69.3711 625.406 69.3711 624.797V622.641C69.3711 622.031 69.5859 621.512 70.0156 621.082C70.4453 620.652 70.9648 620.438 71.5742 620.438C72.1914 620.438 72.7129 620.652 73.1387 621.082C73.5723 621.512 73.7891 622.031 73.7891 622.641V622.699L72.8516 623.121V622.658C72.8438 622.295 72.7188 621.994 72.4766 621.756C72.2266 621.51 71.9316 621.387 71.5918 621.387C71.2402 621.387 70.9375 621.51 70.6836 621.756C70.4336 622.002 70.3086 622.297 70.3086 622.641C70.3086 622.648 70.3086 622.654 70.3086 622.658V624.779ZM77.0469 624.779C77.0469 625.139 77.1777 625.439 77.4395 625.682C77.7051 625.928 78.0078 626.051 78.3477 626.051C78.6758 626.051 78.9648 625.928 79.2148 625.682C79.457 625.443 79.582 625.143 79.5898 624.779V622.658C79.582 622.295 79.457 621.994 79.2148 621.756C78.9648 621.51 78.6523 621.387 78.2773 621.387C77.9492 621.387 77.6621 621.51 77.416 621.756C77.1738 621.998 77.0508 622.287 77.0469 622.623V622.658V624.779ZM76.1094 622.641C76.1094 622.031 76.3242 621.512 76.7539 621.082C77.1836 620.652 77.7031 620.438 78.3125 620.438C78.9219 620.438 79.4434 620.652 79.877 621.082C80.3105 621.512 80.5273 622.031 80.5273 622.641V624.797C80.5273 625.406 80.3105 625.926 79.877 626.355C79.4434 626.785 78.9219 627 78.3125 627C77.7031 627 77.1836 626.785 76.7539 626.355C76.3242 625.926 76.1094 625.406 76.1094 624.797V622.641ZM83.7852 624.779C83.7852 625.139 83.916 625.439 84.1777 625.682C84.4434 625.928 84.7461 626.051 85.0859 626.051C85.4141 626.051 85.7031 625.928 85.9531 625.682C86.1953 625.443 86.3203 625.143 86.3281 624.779V622.658C86.3203 622.295 86.1953 621.994 85.9531 621.756C85.7031 621.51 85.3906 621.387 85.0156 621.387C84.6875 621.387 84.4004 621.51 84.1543 621.756C83.9121 621.998 83.7891 622.287 83.7852 622.623V622.658V624.779ZM82.8477 629.291V622.641C82.8477 622.031 83.0645 621.512 83.498 621.082C83.9316 620.652 84.4531 620.438 85.0625 620.438C85.6719 620.438 86.1914 620.652 86.6211 621.082C87.0508 621.512 87.2656 622.031 87.2656 622.641V624.797C87.2656 625.406 87.0508 625.926 86.6211 626.355C86.1914 626.785 85.6719 627 85.0625 627C84.582 627 84.1562 626.867 83.7852 626.602V628.881L82.8477 629.291ZM93.0664 627.123V626.607C92.6992 626.869 92.2773 627 91.8008 627C91.1914 627 90.6699 626.785 90.2363 626.355C89.8027 625.926 89.5859 625.406 89.5859 624.797V620.848L90.5234 620.438V624.779C90.5312 625.143 90.6562 625.443 90.8984 625.682C91.1484 625.928 91.4609 626.051 91.8359 626.051C92.1641 626.051 92.4512 625.928 92.6973 625.682C92.9395 625.439 93.0625 625.15 93.0664 624.814V624.779V620.848L94.0039 620.438V627.141C94.0039 627.75 93.7871 628.27 93.3535 628.699C92.9199 629.129 92.3984 629.344 91.7891 629.344C91.1797 629.344 90.6602 629.129 90.2305 628.699C89.957 628.426 89.7715 628.117 89.6738 627.773L90.6055 627.574C90.668 627.742 90.7715 627.893 90.916 628.025C91.1855 628.271 91.4883 628.395 91.8242 628.395C92.1523 628.395 92.4414 628.271 92.6914 628.025C92.9336 627.787 93.0586 627.486 93.0664 627.123ZM96.3242 627V622.641C96.3242 622.031 96.5391 621.512 96.9688 621.082C97.3984 620.652 97.918 620.438 98.5273 620.438C99.1484 620.438 99.6699 620.652 100.092 621.082C100.525 621.527 100.742 622.047 100.742 622.641V622.664L99.8047 623.074V622.658C99.7969 622.295 99.6719 621.994 99.4297 621.756C99.1797 621.51 98.8848 621.387 98.5449 621.387C98.1895 621.387 97.8867 621.51 97.6367 621.756C97.3867 622.002 97.2617 622.297 97.2617 622.641C97.2617 622.648 97.2617 622.654 97.2617 622.658V626.59L96.3242 627ZM106.543 624.738L107.48 624.328V624.797C107.48 625.406 107.266 625.926 106.836 626.355C106.406 626.785 105.887 627 105.277 627C104.668 627 104.146 626.785 103.713 626.355C103.279 625.926 103.062 625.406 103.062 624.797V620.848L104 620.438V624.779C104.008 625.143 104.133 625.443 104.375 625.682C104.625 625.928 104.938 626.051 105.312 626.051C105.641 626.051 105.928 625.918 106.174 625.652C106.42 625.387 106.543 625.082 106.543 624.738ZM102.98 619.471C102.832 619.318 102.758 619.135 102.758 618.92C102.758 618.705 102.832 618.523 102.98 618.375C103.129 618.223 103.309 618.146 103.52 618.146C103.73 618.146 103.91 618.223 104.059 618.375C104.207 618.523 104.281 618.705 104.281 618.92C104.281 619.135 104.207 619.318 104.059 619.471C103.91 619.619 103.73 619.693 103.52 619.693C103.309 619.693 103.129 619.619 102.98 619.471ZM113.281 627.123V626.602C112.91 626.867 112.484 627 112.004 627C111.395 627 110.875 626.785 110.445 626.355C110.016 625.926 109.801 625.406 109.801 624.797V622.641C109.801 622.031 110.016 621.512 110.445 621.082C110.875 620.652 111.395 620.438 112.004 620.438C112.613 620.438 113.135 620.652 113.568 621.082C114.002 621.512 114.219 622.031 114.219 622.641V627.141C114.219 627.75 114.002 628.27 113.568 628.699C113.135 629.129 112.613 629.344 112.004 629.344C111.395 629.344 110.875 629.129 110.445 628.699C110.172 628.426 109.986 628.117 109.889 627.773L110.82 627.574C110.883 627.742 110.986 627.893 111.131 628.025C111.4 628.271 111.703 628.395 112.039 628.395C112.367 628.395 112.656 628.271 112.906 628.025C113.148 627.787 113.273 627.486 113.281 627.123ZM110.738 624.779C110.738 625.139 110.869 625.439 111.131 625.682C111.396 625.928 111.699 626.051 112.039 626.051C112.367 626.051 112.656 625.928 112.906 625.682C113.148 625.443 113.273 625.143 113.281 624.779V622.658C113.273 622.295 113.148 621.994 112.906 621.756C112.656 621.51 112.344 621.387 111.969 621.387C111.641 621.387 111.354 621.51 111.107 621.756C110.865 621.998 110.742 622.287 110.738 622.623V622.658V624.779ZM116.539 627V618.557L117.477 618.146V620.83C117.844 620.568 118.266 620.438 118.742 620.438C119.352 620.438 119.873 620.652 120.307 621.082C120.74 621.512 120.957 622.031 120.957 622.641V626.59L120.02 627V622.658C120.012 622.295 119.887 621.994 119.645 621.756C119.395 621.51 119.1 621.387 118.76 621.387C118.396 621.387 118.092 621.51 117.846 621.756C117.604 621.998 117.48 622.287 117.477 622.623V622.658V626.59L116.539 627ZM126.758 624.738C126.758 624.738 127.07 624.602 127.695 624.328V624.797C127.695 625.406 127.48 625.926 127.051 626.355C126.621 626.785 126.102 627 125.492 627C124.883 627 124.361 626.785 123.928 626.355C123.494 625.926 123.277 625.406 123.277 624.797V621.492H122.551L122.961 620.555H123.277V618.557L124.215 618.146V620.555H127.191L126.781 621.492H124.215V624.779C124.223 625.146 124.348 625.447 124.59 625.682C124.844 625.928 125.141 626.051 125.48 626.051C125.828 626.051 126.129 625.926 126.383 625.676C126.633 625.434 126.758 625.121 126.758 624.738ZM135.179 624.72C134.603 624.72 134.155 624.544 133.835 624.192C133.515 623.84 133.355 623.352 133.355 622.728C133.355 622.088 133.519 621.596 133.847 621.252C134.183 620.9 134.643 620.724 135.227 620.724C135.419 620.724 135.603 620.744 135.779 620.784C135.963 620.816 136.143 620.872 136.319 620.952L136.115 621.552C135.963 621.488 135.811 621.44 135.659 621.408C135.515 621.376 135.367 621.36 135.215 621.36C134.863 621.36 134.595 621.476 134.411 621.708C134.235 621.932 134.147 622.272 134.147 622.728C134.147 623.16 134.235 623.496 134.411 623.736C134.587 623.968 134.843 624.084 135.179 624.084C135.339 624.084 135.507 624.064 135.683 624.024C135.867 623.976 136.059 623.912 136.259 623.832V624.48C136.067 624.56 135.883 624.62 135.707 624.66C135.531 624.7 135.355 624.72 135.179 624.72ZM134.855 627.66C134.175 627.66 133.535 627.532 132.935 627.276C132.335 627.02 131.807 626.668 131.351 626.22C130.903 625.764 130.551 625.236 130.295 624.636C130.039 624.036 129.911 623.396 129.911 622.716C129.911 622.028 130.039 621.388 130.295 620.796C130.551 620.196 130.903 619.672 131.351 619.224C131.807 618.768 132.335 618.412 132.935 618.156C133.535 617.9 134.175 617.772 134.855 617.772C135.543 617.772 136.183 617.9 136.775 618.156C137.375 618.412 137.899 618.768 138.347 619.224C138.803 619.672 139.159 620.196 139.415 620.796C139.671 621.388 139.799 622.028 139.799 622.716C139.799 623.396 139.671 624.036 139.415 624.636C139.159 625.236 138.803 625.764 138.347 626.22C137.899 626.668 137.375 627.02 136.775 627.276C136.183 627.532 135.543 627.66 134.855 627.66ZM134.855 626.988C135.447 626.988 135.999 626.88 136.511 626.664C137.031 626.44 137.487 626.132 137.879 625.74C138.271 625.348 138.575 624.896 138.791 624.384C139.015 623.864 139.127 623.308 139.127 622.716C139.127 622.124 139.015 621.572 138.791 621.06C138.575 620.54 138.271 620.084 137.879 619.692C137.487 619.3 137.031 618.996 136.511 618.78C135.999 618.556 135.447 618.444 134.855 618.444C134.263 618.444 133.707 618.556 133.187 618.78C132.675 618.996 132.223 619.3 131.831 619.692C131.439 620.084 131.131 620.54 130.907 621.06C130.691 621.572 130.583 622.124 130.583 622.716C130.583 623.308 130.691 623.864 130.907 624.384C131.131 624.896 131.439 625.348 131.831 625.74C132.223 626.132 132.675 626.44 133.187 626.664C133.707 626.88 134.263 626.988 134.855 626.988ZM146.832 620.889C146.832 621.584 146.543 622.158 145.965 622.611C144.914 623.432 144.371 623.863 144.336 623.906C143.703 624.551 143.254 625.195 142.988 625.84L142.936 625.945H146.943L146.533 626.883H141.506L141.951 625.734C142.545 624.426 143.357 623.4 144.389 622.658C144.9 622.279 145.242 622.029 145.414 621.908C145.738 621.682 145.9 621.322 145.9 620.83C145.9 620.803 145.9 620.773 145.9 620.742C145.889 620.266 145.723 619.865 145.402 619.541C145.074 619.209 144.672 619.043 144.195 619.043C143.73 619.043 143.33 619.209 142.994 619.541C142.658 619.873 142.49 620.262 142.49 620.707C142.49 620.715 142.49 620.725 142.49 620.736L142.496 620.795L141.559 621.205L141.553 620.754C141.553 620.051 141.811 619.438 142.326 618.914C142.834 618.402 143.457 618.146 144.195 618.146C144.934 618.146 145.557 618.4 146.064 618.908C146.576 619.412 146.832 620.072 146.832 620.889ZM149.258 620.736V624.41C149.258 624.535 149.27 624.654 149.293 624.768L151.965 619.371C151.672 619.152 151.338 619.043 150.963 619.043C150.49 619.043 150.088 619.209 149.756 619.541C149.424 619.869 149.258 620.268 149.258 620.736ZM153.605 620.754V624.393C153.605 625.111 153.348 625.727 152.832 626.238C152.316 626.746 151.693 627 150.963 627C150.229 627 149.605 626.746 149.094 626.238C148.578 625.727 148.32 625.111 148.32 624.393V620.754C148.32 620.035 148.578 619.422 149.094 618.914C149.609 618.402 150.232 618.146 150.963 618.146C151.693 618.146 152.316 618.402 152.832 618.914C153.348 619.422 153.605 620.035 153.605 620.754ZM152.592 620.221L149.873 625.711C150.182 625.973 150.545 626.104 150.963 626.104C151.428 626.104 151.828 625.938 152.164 625.605C152.496 625.277 152.664 624.879 152.668 624.41V620.736C152.668 620.553 152.643 620.381 152.592 620.221ZM160.309 620.889C160.309 621.584 160.02 622.158 159.441 622.611C158.391 623.432 157.848 623.863 157.812 623.906C157.18 624.551 156.73 625.195 156.465 625.84L156.412 625.945H160.42L160.01 626.883H154.982L155.428 625.734C156.021 624.426 156.834 623.4 157.865 622.658C158.377 622.279 158.719 622.029 158.891 621.908C159.215 621.682 159.377 621.322 159.377 620.83C159.377 620.803 159.377 620.773 159.377 620.742C159.365 620.266 159.199 619.865 158.879 619.541C158.551 619.209 158.148 619.043 157.672 619.043C157.207 619.043 156.807 619.209 156.471 619.541C156.135 619.873 155.967 620.262 155.967 620.707C155.967 620.715 155.967 620.725 155.967 620.736L155.973 620.795L155.035 621.205L155.029 620.754C155.029 620.051 155.287 619.438 155.803 618.914C156.311 618.402 156.934 618.146 157.672 618.146C158.41 618.146 159.033 618.4 159.541 618.908C160.053 619.412 160.309 620.072 160.309 620.889ZM164.264 622.635C164.15 622.635 163.982 622.676 163.76 622.758L163.268 622.324L165.166 619.201H162.014L162.424 618.264H166.807L164.791 621.744C165.361 621.83 165.865 622.086 166.303 622.512C166.818 623.012 167.076 623.625 167.076 624.352V624.369C167.076 625.111 166.822 625.734 166.314 626.238C165.803 626.746 165.18 627 164.445 627C163.703 627 163.08 626.746 162.576 626.238C162.061 625.715 161.803 625.1 161.803 624.393V624.316L162.74 623.906V624.41C162.74 624.879 162.908 625.277 163.244 625.605C163.58 625.938 163.98 626.104 164.445 626.104C164.918 626.104 165.32 625.938 165.652 625.605C165.984 625.27 166.15 624.869 166.15 624.404C166.15 623.916 165.99 623.52 165.67 623.215C165.33 622.891 164.93 622.701 164.469 622.646C164.402 622.639 164.334 622.635 164.264 622.635ZM170.639 626.777C170.49 626.625 170.416 626.441 170.416 626.227C170.416 626.012 170.49 625.83 170.639 625.682C170.787 625.529 170.967 625.453 171.178 625.453C171.389 625.453 171.568 625.529 171.717 625.682C171.865 625.83 171.939 626.012 171.939 626.227C171.939 626.441 171.865 626.625 171.717 626.777C171.568 626.926 171.389 627 171.178 627C170.967 627 170.787 626.926 170.639 626.777ZM177.91 621.68C178.672 621.766 179.295 622.043 179.779 622.512C180.295 623.012 180.553 623.625 180.553 624.352V624.369C180.553 625.111 180.299 625.734 179.791 626.238C179.279 626.746 178.656 627 177.922 627C177.18 627 176.557 626.746 176.053 626.238C175.537 625.715 175.279 625.1 175.279 624.393V624.316L176.217 623.906V624.41C176.217 624.879 176.385 625.277 176.721 625.605C177.057 625.938 177.457 626.104 177.922 626.104C178.395 626.104 178.797 625.938 179.129 625.605C179.461 625.27 179.627 624.869 179.627 624.404C179.627 623.916 179.467 623.52 179.146 623.215C178.779 622.867 178.379 622.678 177.945 622.646C177.203 622.588 176.621 622.348 176.199 621.926C175.762 621.492 175.543 620.969 175.543 620.355C175.543 619.738 175.758 619.217 176.188 618.791C176.617 618.361 177.137 618.146 177.746 618.146C178.363 618.146 178.885 618.361 179.311 618.791C179.744 619.229 179.961 619.748 179.961 620.35V620.408L179.023 620.83V620.367C179.016 620.004 178.891 619.703 178.648 619.465C178.395 619.215 178.094 619.09 177.746 619.09C177.398 619.09 177.104 619.211 176.861 619.453C176.611 619.707 176.486 620.008 176.486 620.355C176.486 620.703 176.611 621.002 176.861 621.252C177.096 621.486 177.445 621.629 177.91 621.68ZM184.684 626.051C185.012 626.051 185.301 625.928 185.551 625.682C185.793 625.443 185.918 625.143 185.926 624.779V624.697L186.863 624.281V624.797C186.863 625.344 186.629 625.867 186.16 626.367C185.762 626.789 185.258 627 184.648 627C184.039 627 183.52 626.785 183.09 626.355C182.66 625.926 182.445 625.406 182.445 624.797V622.641C182.445 622.031 182.66 621.512 183.09 621.082C183.52 620.652 184.039 620.438 184.648 620.438C185.234 620.438 185.756 620.652 186.213 621.082C186.646 621.488 186.863 622.008 186.863 622.641V623.191L183.383 624.738C183.383 625.109 183.506 625.422 183.752 625.676C183.998 625.926 184.309 626.051 184.684 626.051ZM184.613 621.387C184.285 621.387 183.998 621.51 183.752 621.756C183.506 622.002 183.383 622.297 183.383 622.641C183.383 622.648 183.383 622.654 183.383 622.658V623.713L185.92 622.582C185.9 622.254 185.777 621.979 185.551 621.756C185.301 621.51 184.988 621.387 184.613 621.387ZM190.121 624.779C190.121 625.139 190.252 625.439 190.514 625.682C190.779 625.928 191.082 626.051 191.422 626.051C191.75 626.051 192.039 625.928 192.289 625.682C192.531 625.443 192.656 625.143 192.664 624.779V622.658C192.656 622.295 192.531 621.994 192.289 621.756C192.039 621.51 191.727 621.387 191.352 621.387C191.023 621.387 190.736 621.51 190.49 621.756C190.248 621.998 190.125 622.287 190.121 622.623V622.658V624.779ZM189.184 622.641C189.184 622.031 189.398 621.512 189.828 621.082C190.258 620.652 190.777 620.438 191.387 620.438C191.996 620.438 192.518 620.652 192.951 621.082C193.385 621.512 193.602 622.031 193.602 622.641V624.797C193.602 625.406 193.385 625.926 192.951 626.355C192.518 626.785 191.996 627 191.387 627C190.777 627 190.258 626.785 189.828 626.355C189.398 625.926 189.184 625.406 189.184 624.797V622.641ZM198.172 628.395C198.5 628.395 198.787 628.271 199.033 628.025C199.279 627.779 199.402 627.484 199.402 627.141C199.402 627.141 199.402 627.135 199.402 627.123V620.848C199.402 620.848 199.715 620.711 200.34 620.438V627.141C200.34 627.75 200.125 628.27 199.695 628.699C199.266 629.129 198.746 629.344 198.137 629.344C197.512 629.344 196.988 629.129 196.566 628.699C196.137 628.262 195.922 627.742 195.922 627.141V624.738L196.859 624.328V627.123C196.867 627.486 196.992 627.787 197.234 628.025C197.48 628.271 197.793 628.395 198.172 628.395ZM199.098 618.92C199.098 618.709 199.172 618.527 199.32 618.375C199.469 618.223 199.648 618.146 199.859 618.146C200.066 618.146 200.246 618.223 200.398 618.375C200.547 618.523 200.621 618.705 200.621 618.92C200.621 619.131 200.547 619.312 200.398 619.465C200.25 619.617 200.07 619.693 199.859 619.693C199.648 619.693 199.469 619.619 199.32 619.471C199.172 619.318 199.098 619.135 199.098 618.92ZM204.898 626.051C205.227 626.051 205.516 625.928 205.766 625.682C206.008 625.443 206.133 625.143 206.141 624.779V624.697L207.078 624.281V624.797C207.078 625.344 206.844 625.867 206.375 626.367C205.977 626.789 205.473 627 204.863 627C204.254 627 203.734 626.785 203.305 626.355C202.875 625.926 202.66 625.406 202.66 624.797V622.641C202.66 622.031 202.875 621.512 203.305 621.082C203.734 620.652 204.254 620.438 204.863 620.438C205.449 620.438 205.971 620.652 206.428 621.082C206.861 621.488 207.078 622.008 207.078 622.641V623.191L203.598 624.738C203.598 625.109 203.721 625.422 203.967 625.676C204.213 625.926 204.523 626.051 204.898 626.051ZM204.828 621.387C204.5 621.387 204.213 621.51 203.967 621.756C203.721 622.002 203.598 622.297 203.598 622.641C203.598 622.648 203.598 622.654 203.598 622.658V623.713L206.135 622.582C206.115 622.254 205.992 621.979 205.766 621.756C205.516 621.51 205.203 621.387 204.828 621.387ZM210.336 624.779C210.336 625.139 210.467 625.439 210.729 625.682C210.994 625.928 211.297 626.051 211.637 626.051C211.965 626.051 212.254 625.928 212.504 625.682C212.746 625.443 212.871 625.143 212.879 624.779V622.658C212.871 622.295 212.746 621.994 212.504 621.756C212.254 621.51 211.941 621.387 211.566 621.387C211.238 621.387 210.951 621.51 210.705 621.756C210.463 621.998 210.34 622.287 210.336 622.623V622.658V624.779ZM209.398 622.641C209.398 622.031 209.613 621.512 210.043 621.082C210.473 620.652 210.992 620.438 211.602 620.438C212.211 620.438 212.732 620.652 213.166 621.082C213.6 621.512 213.816 622.031 213.816 622.641V624.797C213.816 625.406 213.6 625.926 213.166 626.355C212.732 626.785 212.211 627 211.602 627C210.992 627 210.473 626.785 210.043 626.355C209.613 625.926 209.398 625.406 209.398 624.797V622.641ZM216.137 627V622.641C216.137 622.031 216.352 621.512 216.781 621.082C217.211 620.652 217.73 620.438 218.34 620.438C218.949 620.438 219.471 620.652 219.904 621.082C220.338 621.512 220.555 622.031 220.555 622.641V626.59L219.617 627V622.658C219.609 622.295 219.484 621.994 219.242 621.756C218.992 621.51 218.697 621.387 218.357 621.387C218.006 621.387 217.703 621.512 217.449 621.762C217.199 622.004 217.074 622.297 217.074 622.641C217.074 622.648 217.074 622.654 217.074 622.658V626.59L216.137 627ZM226.355 627.123V626.602C225.984 626.867 225.559 627 225.078 627C224.469 627 223.949 626.785 223.52 626.355C223.09 625.926 222.875 625.406 222.875 624.797V622.641C222.875 622.031 223.09 621.512 223.52 621.082C223.949 620.652 224.469 620.438 225.078 620.438C225.688 620.438 226.209 620.652 226.643 621.082C227.076 621.512 227.293 622.031 227.293 622.641V627.141C227.293 627.75 227.076 628.27 226.643 628.699C226.209 629.129 225.688 629.344 225.078 629.344C224.469 629.344 223.949 629.129 223.52 628.699C223.246 628.426 223.061 628.117 222.963 627.773L223.895 627.574C223.957 627.742 224.061 627.893 224.205 628.025C224.475 628.271 224.777 628.395 225.113 628.395C225.441 628.395 225.73 628.271 225.98 628.025C226.223 627.787 226.348 627.486 226.355 627.123ZM223.812 624.779C223.812 625.139 223.943 625.439 224.205 625.682C224.471 625.928 224.773 626.051 225.113 626.051C225.441 626.051 225.73 625.928 225.98 625.682C226.223 625.443 226.348 625.143 226.355 624.779V622.658C226.348 622.295 226.223 621.994 225.98 621.756C225.73 621.51 225.418 621.387 225.043 621.387C224.715 621.387 224.428 621.51 224.182 621.756C223.939 621.998 223.816 622.287 223.812 622.623V622.658V624.779ZM236.785 620.373C236.785 620.725 236.902 621.029 237.137 621.287C237.324 621.494 237.621 621.598 238.027 621.598H238.367L239.809 623.73L241.098 621.809L241.93 622.219L240.312 624.527L241.777 626.59L240.922 627L239.75 625.307L238.719 626.883H237.805C237.09 626.883 236.477 626.625 235.965 626.109C235.457 625.598 235.199 624.975 235.191 624.24C235.199 623.494 235.453 622.871 235.953 622.371C236.129 622.195 236.316 622.051 236.516 621.938L236.469 621.902C236.055 621.473 235.848 620.955 235.848 620.35C235.848 619.811 236.059 619.328 236.48 618.902C236.91 618.477 237.43 618.264 238.039 618.264H239.516L239.117 619.201H238.062C237.719 619.209 237.418 619.334 237.16 619.576C236.91 619.807 236.785 620.072 236.785 620.373ZM236.094 624.275C236.094 624.725 236.258 625.113 236.586 625.441C236.918 625.773 237.316 625.941 237.781 625.945L238.25 625.951L239.27 624.533L237.898 622.535H237.781C237.32 622.535 236.924 622.707 236.592 623.051C236.26 623.395 236.094 623.803 236.094 624.275ZM251.568 627V624.316C251.037 624.227 250.57 623.984 250.168 623.59C249.652 623.078 249.395 622.463 249.395 621.744V618.557L250.332 618.146V621.762C250.336 622.23 250.504 622.629 250.836 622.957C251.172 623.289 251.572 623.455 252.037 623.455C252.506 623.455 252.908 623.289 253.244 622.957C253.576 622.629 253.742 622.236 253.742 621.779V621.762V618.557L254.68 618.146V621.744C254.68 622.463 254.422 623.078 253.906 623.59C253.504 623.984 253.037 624.227 252.506 624.316V626.59L251.568 627ZM257.504 624.779C257.504 625.139 257.635 625.439 257.896 625.682C258.162 625.928 258.465 626.051 258.805 626.051C259.133 626.051 259.422 625.928 259.672 625.682C259.914 625.443 260.039 625.143 260.047 624.779V622.658C260.039 622.295 259.914 621.994 259.672 621.756C259.422 621.51 259.109 621.387 258.734 621.387C258.406 621.387 258.119 621.51 257.873 621.756C257.631 621.998 257.508 622.287 257.504 622.623V622.658V624.779ZM256.566 622.641C256.566 622.031 256.781 621.512 257.211 621.082C257.641 620.652 258.16 620.438 258.77 620.438C259.379 620.438 259.9 620.652 260.334 621.082C260.768 621.512 260.984 622.031 260.984 622.641V624.797C260.984 625.406 260.768 625.926 260.334 626.355C259.9 626.785 259.379 627 258.77 627C258.16 627 257.641 626.785 257.211 626.355C256.781 625.926 256.566 625.406 256.566 624.797V622.641ZM264.242 624.779C264.242 625.139 264.373 625.439 264.635 625.682C264.9 625.928 265.203 626.051 265.543 626.051C265.871 626.051 266.16 625.928 266.41 625.682C266.652 625.443 266.777 625.143 266.785 624.779V622.658C266.777 622.295 266.652 621.994 266.41 621.756C266.16 621.51 265.848 621.387 265.473 621.387C265.145 621.387 264.857 621.51 264.611 621.756C264.369 621.998 264.246 622.287 264.242 622.623V622.658V624.779ZM263.305 622.641C263.305 622.031 263.52 621.512 263.949 621.082C264.379 620.652 264.898 620.438 265.508 620.438C266.117 620.438 266.639 620.652 267.072 621.082C267.506 621.512 267.723 622.031 267.723 622.641V624.797C267.723 625.406 267.506 625.926 267.072 626.355C266.639 626.785 266.117 627 265.508 627C264.898 627 264.379 626.785 263.949 626.355C263.52 625.926 263.305 625.406 263.305 624.797V622.641ZM270.043 627V622.641C270.043 622.031 270.258 621.512 270.688 621.082C271.117 620.652 271.637 620.438 272.246 620.438C272.855 620.438 273.377 620.652 273.811 621.082C274.244 621.512 274.461 622.031 274.461 622.641V626.59L273.523 627V622.658C273.516 622.295 273.391 621.994 273.148 621.756C272.898 621.51 272.604 621.387 272.264 621.387C271.912 621.387 271.609 621.512 271.355 621.762C271.105 622.004 270.98 622.297 270.98 622.641C270.98 622.648 270.98 622.654 270.98 622.658V626.59L270.043 627ZM276.781 627V618.557L277.719 618.146V622.951L280.309 620.438L281.199 620.848L279.406 622.623C279.871 622.709 280.252 622.902 280.549 623.203C280.982 623.633 281.199 624.152 281.199 624.762V626.59L280.262 627V624.779C280.254 624.42 280.129 624.119 279.887 623.877C279.645 623.635 279.344 623.512 278.984 623.508C278.641 623.508 278.342 623.631 278.088 623.877C277.842 624.115 277.719 624.404 277.719 624.744V624.779V626.59L276.781 627ZM287 627.123V626.607C286.633 626.869 286.211 627 285.734 627C285.125 627 284.604 626.785 284.17 626.355C283.736 625.926 283.52 625.406 283.52 624.797V620.848L284.457 620.438V624.779C284.465 625.143 284.59 625.443 284.832 625.682C285.082 625.928 285.395 626.051 285.77 626.051C286.098 626.051 286.385 625.928 286.631 625.682C286.873 625.439 286.996 625.15 287 624.814V624.779V620.848L287.938 620.438V627.141C287.938 627.75 287.721 628.27 287.287 628.699C286.854 629.129 286.332 629.344 285.723 629.344C285.113 629.344 284.594 629.129 284.164 628.699C283.891 628.426 283.705 628.117 283.607 627.773L284.539 627.574C284.602 627.742 284.705 627.893 284.85 628.025C285.119 628.271 285.422 628.395 285.758 628.395C286.086 628.395 286.375 628.271 286.625 628.025C286.867 627.787 286.992 627.486 287 627.123ZM292.508 626.051C292.836 626.051 293.123 625.928 293.369 625.682C293.615 625.436 293.738 625.141 293.738 624.797C293.738 624.789 293.738 624.783 293.738 624.779V620.848C293.738 620.848 294.051 620.711 294.676 620.438V624.797C294.676 625.406 294.461 625.926 294.031 626.355C293.602 626.785 293.082 627 292.473 627C291.863 627 291.342 626.785 290.908 626.355C290.475 625.926 290.258 625.406 290.258 624.797V620.848L291.195 620.438V624.779C291.203 625.143 291.328 625.443 291.57 625.682C291.82 625.928 292.133 626.051 292.508 626.051ZM296.996 627V622.641C296.996 622.031 297.211 621.512 297.641 621.082C298.07 620.652 298.59 620.438 299.199 620.438C299.809 620.438 300.33 620.652 300.764 621.082C301.197 621.512 301.414 622.031 301.414 622.641V626.59L300.477 627V622.658C300.469 622.295 300.344 621.994 300.102 621.756C299.852 621.51 299.557 621.387 299.217 621.387C298.865 621.387 298.562 621.512 298.309 621.762C298.059 622.004 297.934 622.297 297.934 622.641C297.934 622.648 297.934 622.654 297.934 622.658V626.59L296.996 627ZM307.215 627.123V626.602C306.844 626.867 306.418 627 305.938 627C305.328 627 304.809 626.785 304.379 626.355C303.949 625.926 303.734 625.406 303.734 624.797V622.641C303.734 622.031 303.949 621.512 304.379 621.082C304.809 620.652 305.328 620.438 305.938 620.438C306.547 620.438 307.068 620.652 307.502 621.082C307.936 621.512 308.152 622.031 308.152 622.641V627.141C308.152 627.75 307.936 628.27 307.502 628.699C307.068 629.129 306.547 629.344 305.938 629.344C305.328 629.344 304.809 629.129 304.379 628.699C304.105 628.426 303.92 628.117 303.822 627.773L304.754 627.574C304.816 627.742 304.92 627.893 305.064 628.025C305.334 628.271 305.637 628.395 305.973 628.395C306.301 628.395 306.59 628.271 306.84 628.025C307.082 627.787 307.207 627.486 307.215 627.123ZM304.672 624.779C304.672 625.139 304.803 625.439 305.064 625.682C305.33 625.928 305.633 626.051 305.973 626.051C306.301 626.051 306.59 625.928 306.84 625.682C307.082 625.443 307.207 625.143 307.215 624.779V622.658C307.207 622.295 307.082 621.994 306.84 621.756C306.59 621.51 306.277 621.387 305.902 621.387C305.574 621.387 305.287 621.51 305.041 621.756C304.799 621.998 304.676 622.287 304.672 622.623V622.658V624.779ZM312.143 626.777C311.994 626.625 311.92 626.441 311.92 626.227C311.92 626.012 311.994 625.83 312.143 625.682C312.291 625.529 312.471 625.453 312.682 625.453C312.893 625.453 313.072 625.529 313.221 625.682C313.369 625.83 313.443 626.012 313.443 626.227C313.443 626.441 313.369 626.625 313.221 626.777C313.072 626.926 312.893 627 312.682 627C312.471 627 312.291 626.926 312.143 626.777ZM128.844 644V637.754C128.844 637.035 129.102 636.422 129.617 635.914C130.133 635.402 130.756 635.146 131.486 635.146C132.217 635.146 132.84 635.402 133.355 635.914C133.871 636.422 134.129 637.035 134.129 637.754V643.59L133.191 644V640.045H129.781V643.59L128.844 644ZM129.781 639.107H133.191V637.736C133.188 637.268 133.02 636.869 132.688 636.541C132.352 636.209 131.951 636.043 131.486 636.043C131.018 636.043 130.615 636.209 130.279 636.541C129.947 636.869 129.781 637.262 129.781 637.719V637.736V639.107ZM139.496 641.738L140.434 641.328V641.797C140.434 642.406 140.219 642.926 139.789 643.355C139.359 643.785 138.84 644 138.23 644C137.621 644 137.1 643.785 136.666 643.355C136.232 642.926 136.016 642.406 136.016 641.797V635.557L136.953 635.146V641.779C136.961 642.143 137.086 642.443 137.328 642.682C137.578 642.928 137.891 643.051 138.266 643.051C138.594 643.051 138.881 642.918 139.127 642.652C139.373 642.387 139.496 642.082 139.496 641.738ZM146.234 641.738L147.172 641.328V641.797C147.172 642.406 146.957 642.926 146.527 643.355C146.098 643.785 145.578 644 144.969 644C144.359 644 143.838 643.785 143.404 643.355C142.971 642.926 142.754 642.406 142.754 641.797V635.557L143.691 635.146V641.779C143.699 642.143 143.824 642.443 144.066 642.682C144.316 642.928 144.629 643.051 145.004 643.051C145.332 643.051 145.619 642.918 145.865 642.652C146.111 642.387 146.234 642.082 146.234 641.738ZM156.23 644V639.641C156.23 639.031 156.445 638.512 156.875 638.082C157.305 637.652 157.824 637.438 158.434 637.438C159.055 637.438 159.576 637.652 159.998 638.082C160.432 638.527 160.648 639.047 160.648 639.641V639.664L159.711 640.074V639.658C159.703 639.295 159.578 638.994 159.336 638.756C159.086 638.51 158.791 638.387 158.451 638.387C158.096 638.387 157.793 638.51 157.543 638.756C157.293 639.002 157.168 639.297 157.168 639.641C157.168 639.648 157.168 639.654 157.168 639.658V643.59L156.23 644ZM166.449 641.738L167.387 641.328V641.797C167.387 642.406 167.172 642.926 166.742 643.355C166.312 643.785 165.793 644 165.184 644C164.574 644 164.053 643.785 163.619 643.355C163.186 642.926 162.969 642.406 162.969 641.797V637.848L163.906 637.438V641.779C163.914 642.143 164.039 642.443 164.281 642.682C164.531 642.928 164.844 643.051 165.219 643.051C165.547 643.051 165.834 642.918 166.08 642.652C166.326 642.387 166.449 642.082 166.449 641.738ZM162.887 636.471C162.738 636.318 162.664 636.135 162.664 635.92C162.664 635.705 162.738 635.523 162.887 635.375C163.035 635.223 163.215 635.146 163.426 635.146C163.637 635.146 163.816 635.223 163.965 635.375C164.113 635.523 164.188 635.705 164.188 635.92C164.188 636.135 164.113 636.318 163.965 636.471C163.816 636.619 163.637 636.693 163.426 636.693C163.215 636.693 163.035 636.619 162.887 636.471ZM173.188 644.123V643.602C172.816 643.867 172.391 644 171.91 644C171.301 644 170.781 643.785 170.352 643.355C169.922 642.926 169.707 642.406 169.707 641.797V639.641C169.707 639.031 169.922 638.512 170.352 638.082C170.781 637.652 171.301 637.438 171.91 637.438C172.52 637.438 173.041 637.652 173.475 638.082C173.908 638.512 174.125 639.031 174.125 639.641V644.141C174.125 644.75 173.908 645.27 173.475 645.699C173.041 646.129 172.52 646.344 171.91 646.344C171.301 646.344 170.781 646.129 170.352 645.699C170.078 645.426 169.893 645.117 169.795 644.773L170.727 644.574C170.789 644.742 170.893 644.893 171.037 645.025C171.307 645.271 171.609 645.395 171.945 645.395C172.273 645.395 172.562 645.271 172.812 645.025C173.055 644.787 173.18 644.486 173.188 644.123ZM170.645 641.779C170.645 642.139 170.775 642.439 171.037 642.682C171.303 642.928 171.605 643.051 171.945 643.051C172.273 643.051 172.562 642.928 172.812 642.682C173.055 642.443 173.18 642.143 173.188 641.779V639.658C173.18 639.295 173.055 638.994 172.812 638.756C172.562 638.51 172.25 638.387 171.875 638.387C171.547 638.387 171.26 638.51 171.014 638.756C170.771 638.998 170.648 639.287 170.645 639.623V639.658V641.779ZM176.445 644V635.557L177.383 635.146V637.83C177.75 637.568 178.172 637.438 178.648 637.438C179.258 637.438 179.779 637.652 180.213 638.082C180.646 638.512 180.863 639.031 180.863 639.641V643.59L179.926 644V639.658C179.918 639.295 179.793 638.994 179.551 638.756C179.301 638.51 179.006 638.387 178.666 638.387C178.303 638.387 177.998 638.51 177.752 638.756C177.51 638.998 177.387 639.287 177.383 639.623V639.658V643.59L176.445 644ZM186.664 641.738C186.664 641.738 186.977 641.602 187.602 641.328V641.797C187.602 642.406 187.387 642.926 186.957 643.355C186.527 643.785 186.008 644 185.398 644C184.789 644 184.268 643.785 183.834 643.355C183.4 642.926 183.184 642.406 183.184 641.797V638.492H182.457L182.867 637.555H183.184V635.557L184.121 635.146V637.555H187.098L186.688 638.492H184.121V641.779C184.129 642.146 184.254 642.447 184.496 642.682C184.75 642.928 185.047 643.051 185.387 643.051C185.734 643.051 186.035 642.926 186.289 642.676C186.539 642.434 186.664 642.121 186.664 641.738ZM192.172 643.051C192.52 643.051 192.807 642.934 193.033 642.699C193.26 642.457 193.373 642.188 193.373 641.891C193.373 641.629 193.26 641.381 193.033 641.146C192.803 640.912 192.49 640.785 192.096 640.766C191.611 640.742 191.227 640.596 190.941 640.326C190.664 640.064 190.498 639.689 190.443 639.201C190.439 639.166 190.438 639.131 190.438 639.096C190.457 638.67 190.629 638.291 190.953 637.959C191.285 637.611 191.689 637.438 192.166 637.438C192.67 637.438 193.074 637.611 193.379 637.959C193.582 638.193 193.74 638.504 193.854 638.891L193.004 639.266C192.941 639.008 192.846 638.803 192.717 638.65C192.572 638.49 192.387 638.41 192.16 638.41C191.945 638.41 191.758 638.49 191.598 638.65C191.449 638.799 191.375 638.967 191.375 639.154C191.375 639.162 191.375 639.172 191.375 639.184C191.375 639.371 191.445 639.533 191.586 639.67C191.715 639.799 191.902 639.877 192.148 639.904C192.828 639.982 193.35 640.191 193.713 640.531C194.111 640.914 194.311 641.381 194.311 641.932V641.949C194.303 642.473 194.109 642.941 193.73 643.355C193.332 643.785 192.812 644 192.172 644C191.559 644 191.055 643.789 190.66 643.367C190.219 642.902 189.984 642.379 189.957 641.797L189.951 641.738L190.889 641.328L190.895 641.779C190.898 642.143 191.021 642.443 191.264 642.682C191.514 642.928 191.816 643.051 192.172 643.051ZM203.398 644V639.641C203.398 639.031 203.613 638.512 204.043 638.082C204.473 637.652 204.992 637.438 205.602 637.438C206.223 637.438 206.744 637.652 207.166 638.082C207.6 638.527 207.816 639.047 207.816 639.641V639.664L206.879 640.074V639.658C206.871 639.295 206.746 638.994 206.504 638.756C206.254 638.51 205.959 638.387 205.619 638.387C205.264 638.387 204.961 638.51 204.711 638.756C204.461 639.002 204.336 639.297 204.336 639.641C204.336 639.648 204.336 639.654 204.336 639.658V643.59L203.398 644ZM212.375 643.051C212.703 643.051 212.992 642.928 213.242 642.682C213.484 642.443 213.609 642.143 213.617 641.779V641.697L214.555 641.281V641.797C214.555 642.344 214.32 642.867 213.852 643.367C213.453 643.789 212.949 644 212.34 644C211.73 644 211.211 643.785 210.781 643.355C210.352 642.926 210.137 642.406 210.137 641.797V639.641C210.137 639.031 210.352 638.512 210.781 638.082C211.211 637.652 211.73 637.438 212.34 637.438C212.926 637.438 213.447 637.652 213.904 638.082C214.338 638.488 214.555 639.008 214.555 639.641V640.191L211.074 641.738C211.074 642.109 211.197 642.422 211.443 642.676C211.689 642.926 212 643.051 212.375 643.051ZM212.305 638.387C211.977 638.387 211.689 638.51 211.443 638.756C211.197 639.002 211.074 639.297 211.074 639.641C211.074 639.648 211.074 639.654 211.074 639.658V640.713L213.611 639.582C213.592 639.254 213.469 638.979 213.242 638.756C212.992 638.51 212.68 638.387 212.305 638.387ZM219.125 643.051C219.473 643.051 219.76 642.934 219.986 642.699C220.213 642.457 220.326 642.188 220.326 641.891C220.326 641.629 220.213 641.381 219.986 641.146C219.756 640.912 219.443 640.785 219.049 640.766C218.564 640.742 218.18 640.596 217.895 640.326C217.617 640.064 217.451 639.689 217.396 639.201C217.393 639.166 217.391 639.131 217.391 639.096C217.41 638.67 217.582 638.291 217.906 637.959C218.238 637.611 218.643 637.438 219.119 637.438C219.623 637.438 220.027 637.611 220.332 637.959C220.535 638.193 220.693 638.504 220.807 638.891L219.957 639.266C219.895 639.008 219.799 638.803 219.67 638.65C219.525 638.49 219.34 638.41 219.113 638.41C218.898 638.41 218.711 638.49 218.551 638.65C218.402 638.799 218.328 638.967 218.328 639.154C218.328 639.162 218.328 639.172 218.328 639.184C218.328 639.371 218.398 639.533 218.539 639.67C218.668 639.799 218.855 639.877 219.102 639.904C219.781 639.982 220.303 640.191 220.666 640.531C221.064 640.914 221.264 641.381 221.264 641.932V641.949C221.256 642.473 221.062 642.941 220.684 643.355C220.285 643.785 219.766 644 219.125 644C218.512 644 218.008 643.789 217.613 643.367C217.172 642.902 216.938 642.379 216.91 641.797L216.904 641.738L217.842 641.328L217.848 641.779C217.852 642.143 217.975 642.443 218.217 642.682C218.467 642.928 218.77 643.051 219.125 643.051ZM225.852 643.051C226.18 643.051 226.469 642.928 226.719 642.682C226.961 642.443 227.086 642.143 227.094 641.779V641.697L228.031 641.281V641.797C228.031 642.344 227.797 642.867 227.328 643.367C226.93 643.789 226.426 644 225.816 644C225.207 644 224.688 643.785 224.258 643.355C223.828 642.926 223.613 642.406 223.613 641.797V639.641C223.613 639.031 223.828 638.512 224.258 638.082C224.688 637.652 225.207 637.438 225.816 637.438C226.402 637.438 226.924 637.652 227.381 638.082C227.814 638.488 228.031 639.008 228.031 639.641V640.191L224.551 641.738C224.551 642.109 224.674 642.422 224.92 642.676C225.166 642.926 225.477 643.051 225.852 643.051ZM225.781 638.387C225.453 638.387 225.166 638.51 224.92 638.756C224.674 639.002 224.551 639.297 224.551 639.641C224.551 639.648 224.551 639.654 224.551 639.658V640.713L227.088 639.582C227.068 639.254 226.945 638.979 226.719 638.756C226.469 638.51 226.156 638.387 225.781 638.387ZM230.352 644V639.641C230.352 639.031 230.566 638.512 230.996 638.082C231.426 637.652 231.945 637.438 232.555 637.438C233.176 637.438 233.697 637.652 234.119 638.082C234.553 638.527 234.77 639.047 234.77 639.641V639.664L233.832 640.074V639.658C233.824 639.295 233.699 638.994 233.457 638.756C233.207 638.51 232.912 638.387 232.572 638.387C232.217 638.387 231.914 638.51 231.664 638.756C231.414 639.002 231.289 639.297 231.289 639.641C231.289 639.648 231.289 639.654 231.289 639.658V643.59L230.352 644ZM238.812 644L236.369 637.848L237.225 637.438L239.299 642.664L241.385 637.426L242.229 637.836L239.867 643.59L238.812 644ZM246.066 643.051C246.395 643.051 246.684 642.928 246.934 642.682C247.176 642.443 247.301 642.143 247.309 641.779V641.697L248.246 641.281V641.797C248.246 642.344 248.012 642.867 247.543 643.367C247.145 643.789 246.641 644 246.031 644C245.422 644 244.902 643.785 244.473 643.355C244.043 642.926 243.828 642.406 243.828 641.797V639.641C243.828 639.031 244.043 638.512 244.473 638.082C244.902 637.652 245.422 637.438 246.031 637.438C246.617 637.438 247.139 637.652 247.596 638.082C248.029 638.488 248.246 639.008 248.246 639.641V640.191L244.766 641.738C244.766 642.109 244.889 642.422 245.135 642.676C245.381 642.926 245.691 643.051 246.066 643.051ZM245.996 638.387C245.668 638.387 245.381 638.51 245.135 638.756C244.889 639.002 244.766 639.297 244.766 639.641C244.766 639.648 244.766 639.654 244.766 639.658V640.713L247.303 639.582C247.283 639.254 247.16 638.979 246.934 638.756C246.684 638.51 246.371 638.387 245.996 638.387ZM251.504 641.779C251.504 642.139 251.635 642.439 251.896 642.682C252.162 642.928 252.465 643.051 252.805 643.051C253.133 643.051 253.422 642.928 253.672 642.682C253.914 642.443 254.039 642.143 254.047 641.779V639.658C254.039 639.295 253.914 638.994 253.672 638.756C253.422 638.51 253.109 638.387 252.734 638.387C252.406 638.387 252.119 638.51 251.873 638.756C251.631 638.998 251.508 639.287 251.504 639.623V639.658V641.779ZM254.984 635.146V641.797C254.984 642.406 254.768 642.926 254.334 643.355C253.9 643.785 253.379 644 252.77 644C252.16 644 251.641 643.785 251.211 643.355C250.781 642.926 250.566 642.406 250.566 641.797V639.641C250.566 639.031 250.781 638.512 251.211 638.082C251.641 637.652 252.16 637.438 252.77 637.438C253.25 637.438 253.676 637.57 254.047 637.836V635.557L254.984 635.146ZM258.975 643.777C258.826 643.625 258.752 643.441 258.752 643.227C258.752 643.012 258.826 642.83 258.975 642.682C259.123 642.529 259.303 642.453 259.514 642.453C259.725 642.453 259.904 642.529 260.053 642.682C260.201 642.83 260.275 643.012 260.275 643.227C260.275 643.441 260.201 643.625 260.053 643.777C259.904 643.926 259.725 644 259.514 644C259.303 644 259.123 643.926 258.975 643.777Z" fill="white"/>
<g filter="url(#filter0_d_21_50)">
<path d="M119.512 408.688V410.352H109.32V405.04H119.432V406.72H111.416V408.688H119.512ZM114.312 417.776C116.28 417.776 117.288 417.44 117.288 416.672C117.288 415.904 116.28 415.552 114.312 415.552C112.344 415.552 111.336 415.904 111.336 416.672C111.336 417.44 112.344 417.776 114.312 417.776ZM114.312 413.952C117.496 413.952 119.432 414.928 119.432 416.672C119.432 418.4 117.496 419.376 114.312 419.376C111.128 419.376 109.208 418.4 109.208 416.672C109.208 414.928 111.128 413.952 114.312 413.952ZM107.704 411.376H121.032V413.104H107.704V411.376ZM123.879 416.704V415.04H134.215V419.328H132.103V416.704H123.879ZM130.135 412.528H135.751V414.208H122.407V412.528H128.023V411.472H124.071V407.424H132.039V406.528H124.039V404.928H134.119V408.912H126.151V409.872H134.423V411.472H130.135V412.528ZM144.333 407.696V414.24C144.829 414.224 145.341 414.208 145.853 414.192V407.696H144.333ZM147.885 407.696V414.048C148.461 414 149.037 413.968 149.581 413.888L149.709 415.424C146.717 415.952 143.373 416.016 140.861 416.016L140.637 414.288C141.149 414.288 141.709 414.288 142.285 414.288V407.696H141.021V406H149.149V407.696H147.885ZM154.509 410.208V411.952H152.365V419.392H150.253V404.656H152.365V410.208H154.509ZM167.787 404.64V412.016H165.659V404.64H167.787ZM157.803 408.432C157.803 409.488 158.619 410.096 159.707 410.096C160.795 410.096 161.579 409.488 161.579 408.432C161.579 407.392 160.795 406.768 159.707 406.768C158.619 406.768 157.803 407.392 157.803 408.432ZM163.627 408.432C163.627 410.4 161.947 411.808 159.707 411.808C157.451 411.808 155.755 410.4 155.755 408.432C155.755 406.48 157.451 405.072 159.707 405.072C161.947 405.072 163.627 406.48 163.627 408.432ZM160.075 417.568H168.155V419.2H157.979V415.136H165.691V414.24H157.963V412.624H167.787V416.64H160.075V417.568ZM180.362 404.624H182.474V419.408H180.362V404.624ZM174.554 405.664C176.778 405.664 178.426 407.68 178.426 410.912C178.426 414.16 176.778 416.192 174.554 416.192C172.33 416.192 170.682 414.16 170.682 410.912C170.682 407.68 172.33 405.664 174.554 405.664ZM174.554 407.568C173.466 407.568 172.714 408.736 172.714 410.912C172.714 413.104 173.466 414.272 174.554 414.272C175.642 414.272 176.394 413.104 176.394 410.912C176.394 408.736 175.642 407.568 174.554 407.568ZM201.28 409.456L200.464 411.12C198 410.72 196.224 409.648 195.312 408.144C194.4 409.648 192.64 410.736 190.176 411.12L189.376 409.456C192.656 409.008 194.24 407.232 194.24 405.504V405.072H196.4V405.504C196.4 407.312 197.952 409.024 201.28 409.456ZM192.416 414.864V417.44H200.512V419.12H190.304V414.864H192.416ZM196.384 412.288H202.016V413.968H188.688V412.288H194.272V410.224H196.384V412.288ZM212.095 411.168L210.991 412.8C209.439 412.288 208.367 411.296 207.743 410.048C207.103 411.488 205.967 412.624 204.287 413.216L203.183 411.552C205.647 410.736 206.639 408.768 206.639 406.768V405.44H208.783V406.944C208.783 408.72 209.775 410.448 212.095 411.168ZM210.191 417.744C212.063 417.744 213.071 417.36 213.071 416.528C213.071 415.712 212.063 415.328 210.191 415.328C208.303 415.328 207.295 415.712 207.295 416.528C207.295 417.36 208.303 417.744 210.191 417.744ZM210.191 413.696C213.247 413.696 215.167 414.752 215.167 416.528C215.167 418.32 213.247 419.376 210.191 419.376C207.119 419.376 205.199 418.32 205.199 416.528C205.199 414.752 207.119 413.696 210.191 413.696ZM215.007 408.064H216.959V409.808H215.007V413.36H212.895V404.656H215.007V408.064ZM224.014 412.304V414.704C225.198 414.64 226.382 414.56 227.502 414.448L227.63 415.984C224.478 416.48 221.182 416.512 218.446 416.512L218.19 414.784C219.342 414.784 220.606 414.784 221.902 414.752V412.304H219.134V405.952H226.734V407.632H221.246V410.608H226.83V412.304H224.014ZM228.302 404.64H230.414V419.408H228.302V404.64ZM236.908 407.136C235.836 407.136 235.052 407.824 235.052 408.928C235.052 410.048 235.836 410.704 236.908 410.704C237.98 410.704 238.764 410.048 238.764 408.928C238.764 407.824 237.98 407.136 236.908 407.136ZM243.052 409.776H240.7C240.3 411.376 238.812 412.464 236.908 412.464C234.716 412.464 233.052 410.992 233.052 408.928C233.052 406.864 234.716 405.392 236.908 405.392C238.796 405.392 240.284 406.464 240.684 408.064H243.052V404.64H245.164V412.88H243.052V409.776ZM243.788 413.456V414C243.788 415.568 244.572 417.024 246.54 417.648L245.484 419.168C244.092 418.704 243.212 417.808 242.7 416.656C242.22 417.808 241.372 418.8 240.044 419.328C238.684 418.816 237.852 417.856 237.372 416.704C236.86 417.808 235.98 418.704 234.652 419.168L233.612 417.648C235.532 416.96 236.332 415.472 236.332 414V413.456H238.38V414C238.38 415.216 238.86 416.448 240.028 417.28C241.228 416.4 241.708 415.104 241.708 414V413.456H243.788ZM260.219 408.768L259.467 410.4C256.955 410.096 255.163 409.056 254.219 407.648C253.291 409.056 251.467 410.08 248.955 410.4L248.219 408.768C251.531 408.384 253.131 406.752 253.131 405.248V404.8H255.307V405.248C255.307 406.736 256.907 408.4 260.219 408.768ZM257.115 417.568V416.288H251.211V417.568H257.115ZM257.115 414.704V413.472H259.195V419.2H249.115V413.472H251.211V414.704H257.115ZM247.563 411.072H260.875V412.736H247.563V411.072ZM265.146 406.032V413.936C267.082 413.888 269.178 413.728 271.338 413.296L271.562 415.056C269.05 415.584 266.602 415.744 264.362 415.744H263.05V406.032H265.146ZM272.474 404.624H274.586V419.36H272.474V404.624ZM279.673 407.712V414.112C281.769 414.08 283.513 413.968 285.417 413.648L285.625 415.392C283.401 415.792 281.385 415.872 278.825 415.872H277.577V406H284.441V407.712H279.673ZM290.681 410.08V411.824H288.537V419.408H286.425V404.64H288.537V410.08H290.681Z" fill="white"/>
</g>
<g filter="url(#filter1_d_21_50)">
<path d="M76.1406 300L96.1406 260H106.141L126.141 300H113.641L111.141 295H93.6406L98.6406 285H106.141L101.141 275L88.6406 300H76.1406ZM133.094 300L128.094 295V265L133.094 260H163.094L158.094 270H138.094V290H163.094V300H133.094ZM172.547 300L167.547 295V265L172.547 260H202.547L197.547 270H177.547V290H202.547V300H172.547ZM207 300V260H237V270H217V275H237V285H217V290H237V300H207ZM241.453 300V290H266.453V285H246.453L241.453 280V265L246.453 260H276.453V270H251.453V275H276.453V290L266.453 300H241.453ZM280.906 300V290H305.906V285H285.906L280.906 280V265L285.906 260H315.906V270H290.906V275H315.906V290L305.906 300H280.906ZM123.641 345V325H108.641V345H123.641ZM98.6406 355V315H128.641L133.641 320V350L128.641 355H98.6406ZM138.094 355V315H168.094V325H148.094V330H168.094V340H148.094V345H168.094V355H138.094ZM172.547 355V315H185.047L197.547 340V315H207.547V355H195.047L182.547 330V355H172.547ZM212 355V315H222V355H212ZM226.453 355V315H256.453V325H236.453V330H256.453V340H236.453V345H256.453V355H226.453ZM285.906 345V325H270.906V345H285.906ZM260.906 355V315H290.906L295.906 320V350L290.906 355H260.906Z" fill="white"/>
</g>
<g filter="url(#filter2_d_21_50)">
<rect x="61.5" y="237.5" width="267" height="136" stroke="white" stroke-width="7" shape-rendering="crispEdges"/>
</g>
<line y1="135" x2="390" y2="135" stroke="white" stroke-width="2"/>
<line x1="-1" y1="522" x2="389" y2="522" stroke="white" stroke-width="2"/>
<defs>
<filter id="filter0_d_21_50" x="103.704" y="404.624" width="190.977" height="22.784" filterUnits="userSpaceOnUse" color-interpolation-filters="sRGB">
<feFlood flood-opacity="0" result="BackgroundImageFix"/>
<feColorMatrix in="SourceAlpha" type="matrix" values="0 0 0 0 0 0 0 0 0 0 0 0 0 0 0 0 0 0 127 0" result="hardAlpha"/>
<feOffset dy="4"/>
<feGaussianBlur stdDeviation="2"/>
<feComposite in2="hardAlpha" operator="out"/>
<feColorMatrix type="matrix" values="0 0 0 0 0 0 0 0 0 0 0 0 0 0 0 0 0 0 0.25 0"/>
<feBlend mode="normal" in2="BackgroundImageFix" result="effect1_dropShadow_21_50"/>
<feBlend mode="normal" in="SourceGraphic" in2="effect1_dropShadow_21_50" result="shape"/>
</filter>
<filter id="filter1_d_21_50" x="72.1406" y="260" width="247.766" height="103" filterUnits="userSpaceOnUse" color-interpolation-filters="sRGB">
<feFlood flood-opacity="0" result="BackgroundImageFix"/>
<feColorMatrix in="SourceAlpha" type="matrix" values="0 0 0 0 0 0 0 0 0 0 0 0 0 0 0 0 0 0 127 0" result="hardAlpha"/>
<feOffset dy="4"/>
<feGaussianBlur stdDeviation="2"/>
<feComposite in2="hardAlpha" operator="out"/>
<feColorMatrix type="matrix" values="0 0 0 0 0 0 0 0 0 0 0 0 0 0 0 0 0 0 0.25 0"/>
<feBlend mode="normal" in2="BackgroundImageFix" result="effect1_dropShadow_21_50"/>
<feBlend mode="normal" in="SourceGraphic" in2="effect1_dropShadow_21_50" result="shape"/>
</filter>
<filter id="filter2_d_21_50" x="54" y="234" width="282" height="151" filterUnits="userSpaceOnUse" color-interpolation-filters="sRGB">
<feFlood flood-opacity="0" result="BackgroundImageFix"/>
<feColorMatrix in="SourceAlpha" type="matrix" values="0 0 0 0 0 0 0 0 0 0 0 0 0 0 0 0 0 0 127 0" result="hardAlpha"/>
<feOffset dy="4"/>
<feGaussianBlur stdDeviation="2"/>
<feComposite in2="hardAlpha" operator="out"/>
<feColorMatrix type="matrix" values="0 0 0 0 0 0 0 0 0 0 0 0 0 0 0 0 0 0 0.25 0"/>
<feBlend mode="normal" in2="BackgroundImageFix" result="effect1_dropShadow_21_50"/>
<feBlend mode="normal" in="SourceGraphic" in2="effect1_dropShadow_21_50" result="shape"/>
</filter>
</defs>
</svg>
